<svg xmlns="http://www.w3.org/2000/svg" viewBox="0 0 1600 1000" role="img" aria-label="Fondo caricaturesco de pesebre nocturno"><defs><linearGradient id="sky" x1="0" y1="0" x2="0" y2="1"><stop offset="0" stop-color="#041a35"/><stop offset=".55" stop-color="#0a2e52"/><stop offset="1" stop-color="#23180f"/></linearGradient><linearGradient id="wood" x1="0" y1="0" x2="1" y2="0"><stop offset="0" stop-color="#4b260d"/><stop offset=".48" stop-color="#8a4d1a"/><stop offset="1" stop-color="#402009"/></linearGradient><linearGradient id="ground" x1="0" y1="0" x2="0" y2="1"><stop offset="0" stop-color="#8d5a21"/><stop offset="1" stop-color="#3d220f"/></linearGradient><radialGradient id="glow"><stop offset="0" stop-color="#fff3a6" stop-opacity=".95"/><stop offset=".18" stop-color="#ffbd35" stop-opacity=".7"/><stop offset="1" stop-color="#ff9d00" stop-opacity="0"/></radialGradient><filter id="soft"><feGaussianBlur stdDeviation="18"/></filter><pattern id="grain" width="90" height="90" patternUnits="userSpaceOnUse"><path d="M0 18C28 2 58 30 90 10M0 55c35-20 56 22 90 0" fill="none" stroke="#e4a54c" stroke-opacity=".08" stroke-width="3"/></pattern></defs><rect width="1600" height="1000" fill="url(#sky)"/><g fill="#fff3b0"><circle cx="105" cy="118" r="2"/><circle cx="215" cy="74" r="1.8"/><circle cx="345" cy="145" r="2.2"/><circle cx="495" cy="92" r="1.5"/><circle cx="632" cy="138" r="2"/><circle cx="777" cy="70" r="1.6"/><circle cx="916" cy="132" r="2.2"/><circle cx="1032" cy="86" r="1.8"/><circle cx="1189" cy="146" r="2.2"/><circle cx="1316" cy="72" r="1.7"/><circle cx="1478" cy="122" r="2.2"/></g><g transform="translate(1180 105)"><path d="M0-34 8-9 34 0 8 9 0 34-8 9-34 0-8-9Z" fill="#ffd654"/><circle r="70" fill="url(#glow)" opacity=".72" filter="url(#soft)"/></g><path d="M-100 360 800 35 1700 360 1655 418 800 130 -55 420Z" fill="#2e1708"/><path d="M-65 350 800 62 1665 350 1605 410 800 145 -5 410Z" fill="#b77b2c"/><g stroke="#5b300f" stroke-width="12" opacity=".8"><path d="M10 355 794 98M180 380 798 112M360 388 801 120M1590 355 806 98M1420 380 802 112M1240 388 799 120"/></g><rect x="40" y="330" width="86" height="580" rx="16" fill="url(#wood)"/><rect x="1474" y="330" width="86" height="580" rx="16" fill="url(#wood)"/><rect x="758" y="105" width="84" height="420" rx="18" fill="url(#wood)"/><path d="M74 430h1452" stroke="#3a1c09" stroke-width="54" stroke-linecap="round"/><path d="M75 422h1450" stroke="#8d4a16" stroke-width="35" stroke-linecap="round"/><g opacity=".75"><rect x="115" y="490" width="420" height="250" rx="22" fill="#1a110a"/><rect x="1065" y="490" width="420" height="250" rx="22" fill="#1a110a"/></g><ellipse cx="800" cy="700" rx="680" ry="260" fill="#ffb62d" opacity=".12" filter="url(#soft)"/><path d="M0 700C300 620 480 705 800 660c318-45 520-6 800 40v300H0Z" fill="url(#ground)"/><rect y="690" width="1600" height="310" fill="url(#grain)"/><g fill="none" stroke="#d79b3e" stroke-width="9" stroke-linecap="round" opacity=".5"><path d="M75 830q55-38 120-6M310 905q65-45 145-5M1180 850q75-44 150 0M1390 925q60-35 115-5M560 860q80-40 152 0M840 930q90-50 180-5"/></g><g transform="translate(1268 355)"><circle cy="42" r="88" fill="url(#glow)" opacity=".7" filter="url(#soft)"/><path d="M-28 0h56l-8 18h-40Z" fill="#301708" stroke="#8a4b1c" stroke-width="6"/><rect x="-22" y="18" width="44" height="72" rx="8" fill="#2f1a0d" stroke="#9a5d27" stroke-width="7"/><rect x="-10" y="29" width="20" height="48" rx="10" fill="#ffd45e"/><path d="M0 0v-40" stroke="#633812" stroke-width="7"/><path d="M-18-40q18-22 36 0" fill="none" stroke="#633812" stroke-width="7"/></g><g opacity=".92"><path d="M86 754q60-64 126 0v72H86Z" fill="#5f3514"/><path d="M104 746q43-44 90 0" fill="none" stroke="#dfaa45" stroke-width="18" stroke-linecap="round"/><path d="M1360 758q60-64 126 0v72h-126Z" fill="#5f3514"/><path d="M1378 748q43-44 90 0" fill="none" stroke="#dfaa45" stroke-width="18" stroke-linecap="round"/></g><rect width="1600" height="1000" fill="none" stroke="#120a05" stroke-width="26"/></svg>